<?xml version="1.0" encoding="utf-8"?>
<!-- Generator: Adobe Illustrator 18.1.1, SVG Export Plug-In . SVG Version: 6.00 Build 0)  -->
<svg version="1.1" id="Layer_1" xmlns="http://www.w3.org/2000/svg" xmlns:xlink="http://www.w3.org/1999/xlink" x="0px" y="0px"
	 viewBox="0 0 155 85" enable-background="new 0 0 155 85" xml:space="preserve">
<g>
	<path fill="#165027" d="M85.2,27c0.2,0.7,0.3,1.3,0.6,2c0.5,1.2-0.3,2.3-1.7,2.3c0-0.4,0-0.8,0-1.1c0,0-0.1,0-0.1,0
		c0,0.8,0,1.6,0,2.4c-0.1,0-0.2,0-0.2,0c0-0.4,0.1-0.9-0.1-1.3c-0.2-0.4-0.7-0.6-1.1-0.9c-0.7,1-1.5,2.2-2.4,3.2
		c-1.8,2.1-2.7,4.4-3,7c-0.2,1.4,0,2.8,0,4.3c2.6-0.6,4.9-1.6,7.1-2.9c0.3-0.2,0.3-0.4,0.2-0.7c-0.7-2.2-1-4.5-1-6.8
		c0-0.2,0-0.3,0-0.5c0-0.3,0.1-0.5,0.2-0.9c0.1,1.7,0.2,3.2,0.3,4.7c0.1,0,0.2,0.1,0.2,0.1c0.8-0.7,1.6-1.5,2.4-2.2
		c0,0,0.1,0,0.1,0.1c-0.5,0.6-1,1.3-1.6,1.9c-0.7,0.7-0.9,1.3-0.5,2.1c0.2,0.5,0.4,1,0.6,1.5c2.2-1.6,4.5-2.9,5.3-5.5
		c0.2-0.5,0.1-1-0.3-1.4c-0.4-0.5-0.8-1-1.2-1.5c-0.4,0.4-0.8,0.8-1.2,1.2c-0.1-0.1-0.1-0.1-0.2-0.2c0.4-0.4,0.8-0.8,1.3-1.2
		c-0.7-0.1-1.2-0.4-1.1-1c0.1-0.9-0.3-1.6-0.7-2.4c0.3,0.4,0.6,0.8,0.8,1.1c1.3-0.8,2.5-1.5,3.6-2.3c0,0.5,0.1,1.2,0.2,1.8
		c0.3,1.5-0.2,2.3-1.9,2.9c0.5,0.4,0.9,0.9,1.4,1.3c0.9-2.5,1.2-5,1.7-7.5c0,0.4,0.1,0.8,0.1,1.3c-0.2,2.8-0.5,5.7-1.4,8.4
		c-0.7,2.2-2.3,3.9-4.2,5.4c-1.6,1.3-3.2,2.6-4.8,3.9c-0.4,0.3-0.8,0.7-1.3,1.2c4.5-1.5,8.1-3.9,11.5-6.7c3.4-2.9,5.8-6.3,7.8-10
		c0.1,0,0.1,0,0.2,0.1c-0.7,1.5-1.2,3.1-2,4.6c-0.8,1.5-1.8,2.9-2.8,4.4c1.1-0.2,2.3-0.4,3.4-0.7c0.2-0.1,0.4-0.4,0.6-0.6
		c0.6-0.7,1.1-1.4,1.7-2.1c0.1,0,0.1,0.1,0.2,0.1c-0.3,0.4-0.6,0.8-0.8,1.2c-0.2,0.4-0.5,0.8-0.7,1.2c0,0,0.1,0.1,0.1,0.1
		c1.8-0.6,3.7-1.2,5.5-1.7c0,0,0,0,0,0c-0.3,0.2-0.7,0.3-1,0.5c-3.1,1.2-6.2,2.1-9.5,2.5c-0.1,0-0.3,0-0.4,0.1
		c-0.6,0.7-1.2,1.4-1.9,2.2c0.5,0.1,0.7,0.1,0.9,0.1c1.6-0.1,3.2-0.3,4.8-0.5c0.2,0,0.4-0.2,0.5-0.3c0.5-0.4,0.9-1,1.4-1.3
		c0.5-0.4,1.1-0.7,1.7-1c0,0.4,0,0.9,0,1.3c0.1,0,0.1,0.1,0.2,0.1c2.1-1.4,4.2-2.9,6.3-4.3c0,0,0,0,0.1,0.1c-1.2,1-2.4,2.1-3.7,3.1
		c1.7,0.5,2.8-0.3,3.9-1.3c-0.3,0.4-0.7,0.8-1.2,1.4c1.3-0.2,2.3-0.4,3.3-0.6c0,0.1,0,0.1,0,0.2c-1.4,0.2-2.7,0.5-4.1,0.7
		c-0.3,0.1-0.6,0.1-0.9,0.1c-1.3-0.1-2.3,0.3-3.2,1.1c-0.3,0.3-0.6,0.5-0.7,0.9c-0.2,0.8-1.1,1.3-2.2,1.2c0-0.2,0.1-0.4,0.1-0.7
		c0,0-0.1,0-0.1,0c-0.1,0.3-0.2,0.6-0.3,1c-0.1,0.3-0.1,0.6-0.2,0.9c-0.1,0-0.2,0-0.2,0c0.1-0.3,0.1-0.5,0.2-0.8
		c0.2-0.6-0.1-0.9-0.8-0.8c-1.9,0.3-3.8,0.5-5.6,0.9c-0.7,0.1-1.3,0.3-1.9,0.6C90,45,88.6,45.9,87,46.8c1.3,0.2,2.5,0.5,3.6,0.5
		c2.2,0.1,4.5,0.1,6.7,0c0.7,0,1.3-0.4,1.9-0.8c0.3-0.2,0.3-0.7,0.4-1.2c0,0.4,0,0.6,0.1,1c0.2-0.1,0.4-0.2,0.6-0.3
		c0,0,0,0.1,0.1,0.1c-0.6,0.4-1.1,0.8-1.8,1.3c1.3-0.1,2.4-0.1,3.5-0.1c-3.6,0.7-7.2,0.9-10.8,1c1,0.7,2,1.6,3.5,1.2
		c0.9-0.2,1.8-0.2,2.7-0.2c-1.1,0.2-2.2,0.5-3.3,0.7c0,0.1,0,0.1,0,0.2c1.6,0.6,3.2,1.2,4.7,1.8c0,0,0,0.1,0,0.1
		c-0.9-0.3-1.8-0.5-2.6-0.8c-2.1-0.9-4.1-1.9-6.1-2.9c-0.2-0.1-0.4-0.2-0.6-0.2c-1.2,0-2.4,0-3.6,0c-0.9,0-1.7,0.4-2.3,0.9
		c-2.2,1.8-3.4,4.2-3.5,6.9c-0.2,2.7,0,5.5,0,8.2c0.1,4.1,0.3,8.1,0.4,12.2c0,0.2,0.1,0.4,0.2,0.6c0,0.1-0.1,0.1-0.1,0.2
		c0,1.1,0,2.3,0,3.4c0.1,0,0.2,0,0.2,0c0.1-0.2,0.1-0.4,0.2-0.6c0.2-0.4,0.4-0.8,0.5-1.2c-0.3,0.9-0.5,1.8-0.8,2.7
		c-1.2-0.4-1.3-1.3-1.2-2.3c-0.1,0.4-0.1,0.8-0.2,1.3c-0.3-0.3-0.4-0.4-0.6-0.6c0.5,0.8,1.2,1.4,0.6,2.5c-0.1-0.3-0.2-0.5-0.3-0.7
		c-0.1,0.5-0.2,1-0.4,1.6c-0.1,0-0.1,0-0.2,0c-0.1-0.2-0.2-0.4-0.3-0.7c-0.1,0.3-0.2,0.5-0.3,0.7c0,0-0.1,0-0.1,0c0-0.5,0-1,0-1.5
		c0,0-0.1,0-0.1,0c-0.1,0.6-0.2,1.3-0.3,1.9c-0.1,0-0.1,0-0.2,0c0-0.5-0.1-1-0.1-1.5c-0.1,0.1-0.1,0.1-0.2,0.1
		c-0.1-0.6-0.2-1.3-0.3-1.9c-0.1,0.2-0.2,0.4-0.3,0.8c-0.1-0.2-0.2-0.4-0.2-0.5c-0.2,0.5-0.4,1-0.7,1.6c-0.1-0.3-0.2-0.6-0.3-1
		c-0.2,0.5-0.2,0.7-0.4,1.1c-0.1-0.2-0.2-0.3-0.3-0.5c0,0.4,0,0.7-0.1,1c-1-1,0.1-1.9,0.1-2.9c-0.5,0.9-0.9,1.8-1.3,2.7
		c-0.1,0-0.2-0.1-0.3-0.1c0.2-1,0.4-2.1,0.7-3.2c-0.1,0.1-0.1,0.1-0.1,0.2c-0.3,0.9-0.5,1.8-0.8,2.6c-0.2-0.3-0.4-0.7-0.6-1.1
		c0,0-0.1,0-0.1,0c0,0.3,0,0.6,0.1,0.9c-0.1,0-0.1,0-0.2,0c-0.1-0.5-0.1-0.9-0.2-1.4c-0.1-0.4-0.2-0.9-0.3-1.3c-0.1,0-0.1,0-0.2,0
		c0.4,1.4,0.5,2.4,0.1,2.9c-0.1-0.6-0.2-1.2-0.3-1.9c-0.2,0.9-0.3,1.7-0.5,2.5c-0.1,0-0.2,0-0.3,0c-0.3-0.7-0.5-1.4-0.8-2.1
		c0,0,0.1,0,0.1,0c-0.1,0.3-0.1,0.6-0.2,0.8c-0.1,0-0.1,0-0.2,0c-0.1-0.4-0.1-0.7-0.2-1.3c0,0.4,0,0.6-0.1,0.7
		c0,0.1-0.2,0.3-0.2,0.3c-0.5-0.3-0.4,0.3-0.5,0.3c-0.1-0.4-0.2-0.8-0.3-1.2c0,0,0,0,0,0c0-0.2,0-0.5,0-0.7c0,0,0.1,0,0.1,0
		c0.1,0.2,0.1,0.4,0.2,0.8c0.2-0.5,0.4-0.8,0.6-1.3c0.1,0.3,0.1,0.4,0.1,0.7c0.3-0.5,0.5-0.8,0.7-1.4c-0.3,0.2-0.5,0.3-0.7,0.4
		c0.1-1.7,0.3-3.4,0.4-5.1c0.3-5,0.8-10,0.3-15c-0.2-1.9-0.6-3.7-1.3-5.5c-1.1-2.6-2.7-3.6-6.5-3.4c-3.3,0.2-6.4,1.1-9.6,1.9
		c-2.8,0.7-5.6,1-8.5,0.7c-0.1,0-0.3,0-0.4,0c0,0-0.1,0-0.1,0c2.3-0.2,4.7-0.5,7.1-0.7c0-0.1,0-0.2,0.1-0.2
		c-1.4-0.7-2.8-1.4-4.2-2.1c0,0,0-0.1,0-0.1c1.3,0.5,2.6,0.9,3.7,1.5c1,0.5,1.8,0.5,2.8,0.2c2.5-0.7,4.9-1.4,7.4-2.1
		c1-0.3,2.1-0.3,3.2-0.6c-1.2-0.5-2.5-1-3.7-1.4c-3-1-6.1-1.3-9.3-1.7c-1.4-0.2-2.8-0.3-4.1-0.7c-1.2-0.3-2.4-0.7-3.4-1.3
		c-2.2-1.3-4.3-2.7-6.5-4.1c0-0.1,0.1-0.1,0.1-0.2c1.4,0.7,2.7,1.4,4.1,2.1c-1.5-2.2-2.5-4.5-3.3-6.9c-0.2-0.5-0.2-0.9-0.4-1.6
		c0.9,2,1.7,3.8,2.5,5.6c0.1,0,0.2,0,0.3,0c0.7-1.2,1.4-2.5,2.1-3.7c0,0,0.1,0,0.1,0c-0.4,1.1-0.7,2.2-1.3,3.2
		c-0.4,0.8-0.3,1.4,0.1,2.2c1.5,2.4,3.9,3.5,6.9,3.8c1.6,0.1,3.1,0.1,4.7,0.1c0.2,0,0.4-0.1,0.8-0.2c-0.2-0.3-0.3-0.6-0.5-0.8
		c-0.9-0.9-1.7-1.8-2.7-2.7c-1.9-1.7-3.1-3.9-4.3-6c-0.4-0.7-0.8-1.5-1.1-2.3c1.4,1.9,2.8,3.7,4.1,5.6c0.1,0,0.2,0,0.2,0
		c0.2-0.6,0.5-1.3,0.7-1.9c0.1-0.2-0.1-0.5-0.3-0.7c-0.5-0.6-1-1.2-1.4-1.9c0.6,0.6,1.2,1.2,1.9,1.8c0.1,0,0.1,0,0.2-0.1
		c0.1-1,0.3-2,0.4-3.2c-1.4,0.6-2.1-0.4-3.1-0.8c0.7-0.2,1.3-0.4,1.9-0.5c1-0.2,1.4,0.3,1.4,1.1c0,1.7-0.1,3.5-0.7,5.1
		c-0.1,0.3-0.1,0.6-0.3,0.8c-0.4,0.5-0.2,0.9,0.2,1.3c2.3,2.2,5.2,3.7,8.3,5c-0.1-0.6-0.3-1-0.4-1.5c-0.2-1.3-0.3-2.7-0.5-4
		C57.1,37,57,35.8,58,34.9c0.4,0.4,0.8,0.8,1.2,1.2c0.5,0.5,0.5,1.1,0,1.5c-0.2,0.1-0.4,0.1-0.7,0.1c0,0,0,0.1,0.1,0.2
		c-0.3-0.1-0.6-0.2-1-0.3c0.1,0.6,0.2,1.1,0.3,1.6c0.2,1.7,0.7,3.3,1.7,4.7c0.1,0.2,0.4,0.4,0.6,0.5c1.4,0.4,2.9,0.8,4.5,1.3
		c-2.1-2-4.1-4-5.3-6.4c1.1,1.3,2.2,2.6,3.3,3.9c0.1,0,0.2,0,0.2,0c0.3-1.2,0.5-2.3,0.8-3.5c0,0,0.1,0,0.1,0c-0.1,1-0.1,2.1-0.3,3.1
		c-0.1,0.6,0,1,0.5,1.4c0.6,0.5,1.3,1,2,1.5c-0.4-2.8-0.8-5.6-1.9-8.3c-0.1,0-0.2,0-0.3,0c0,0.3-0.1,0.5-0.1,0.8c-0.1,0-0.1,0-0.2,0
		c0-0.3,0.1-0.7,0.1-1c-1.2,0-1.5-0.3-1.7-1.4c0-0.1-0.1-0.3-0.2-0.3c-1-0.7-1.9-1.4-2.9-2.1c-0.2,0.4-0.3,0.7-0.5,0.9
		c-0.2,0.2-0.6,0.3-0.9,0.5c-0.1-0.4-0.2-0.6-0.3-0.9c0,0-0.1,0-0.1,0c0.2,0.6,0.4,1.2,0.5,1.9c0,0-0.1,0-0.1,0.1
		c-0.1-0.1-0.2-0.3-0.2-0.4c-0.1-0.4-0.2-0.7-0.8-1c-0.9-0.3-1-1-0.5-2.2c-1-0.3-2-0.5-3-0.8c0,0,0-0.1,0-0.1
		c0.8,0.2,1.6,0.3,2.4,0.5c1,0.2,1,0.2,1.5-0.6c0.1-0.2,0.2-0.4,0.3-0.6c0.5,0.9,0.9,1.9,2.3,2.4c-1.8-2.6-3.1-5.3-3.7-8.2
		c0.8,1.7,1.6,3.5,2.4,5.2c0.1,0,0.2,0,0.3,0c0.7-1.2,1.4-2.4,2.1-3.6c0,0,0.1,0,0.1,0c-0.3,0.9-0.5,2-1,2.8c-0.7,1.2-0.5,2.1,0.4,3
		c0.8,0.9,1.5,1.9,2.8,2.4c0.1-0.4,0.3-0.8,0.4-1c0.5,0.4,1,0.8,1.5,1.2c0.1-1.1,0.1-2.3,0.3-3.4c0.1-0.6,0.3-1.2,0.5-1.8
		c0.2-0.6,0.5-1.1,0-1.8c-0.2-0.3,0-0.9,0.1-1.3c0.2-0.6,0.6-1.1,0.8-1.6c0.5,0.5,1,1,1.6,1.6c0.8,0.9,0.5,1.8-0.7,2.2
		c-0.2-0.4-0.4-0.8-0.5-1.2c0,0-0.1,0-0.1,0c0.3,0.8,0.7,1.5,1,2.3c-0.7-0.2-0.3-1.3-1.3-1.1c-0.3,1.9-1,3.9-0.2,5.9
		c1.3,3.2,2.9,6.4,4.9,9.3c0.5,0.7,1.1,1.4,1.8,2.2c-0.1-0.9-0.2-1.6-0.1-2.3c0.1-1.2,0.2-2.4,0.4-3.6c0.1-0.4-0.1-0.6-0.3-0.8
		c-2.1-2-4.4-6.1-5.1-8.8c1,1.8,1.9,3.6,2.9,5.3c0.1,0,0.2,0,0.3,0c0.6-1.3,1.2-2.5,1.8-3.8c0,0,0.1,0,0.1,0c-0.3,1-0.5,1.9-0.8,2.9
		c-0.2,0.6-0.5,1.2-0.4,1.7c0.3,0.9,1,1.5,2,2.1c0.7-1.9,1.2-3.8,1.3-5.8c0.1-1.3,0-2.7-0.5-3.9c-0.1-0.2-0.3-0.4-0.4-0.5
		c-0.1,0.2-0.3,0.4-0.4,0.6c-0.1,0.3-0.1,0.6-0.2,1c0,0.1-0.2,0.2-0.3,0.4c0,0-0.1-0.1-0.1-0.1c0.2-1,0.4-2,0.7-3
		c-0.1,0-0.2,0-0.2,0c-0.1,0.4-0.2,0.8-0.3,1.3c-1.5,0.1-2.6-1.2-2.2-2.5c0.1-0.2,0.1-0.4,0.2-0.5c0.8-0.7,0.4-1.3-0.2-1.9
		c-0.3-0.3-0.5-0.6-0.7-0.9c-0.6,0.7-1.2,1.3-2.4,1c0.1-0.4,0.2-0.7,0.3-1.1c0,0-0.1,0-0.1,0c-0.2,0.8-0.5,1.6-0.7,2.3
		c0,0-0.1,0-0.1,0c0-0.2,0-0.3,0-0.5c0.2-0.5,0.3-0.9-0.2-1.4c-0.5-0.4-0.4-1.1,0.1-1.6c0.4-0.4,0.8-0.7,1.3-1
		c-0.1-0.1-0.2-0.3-0.3-0.4c0,0,0,0,0.1,0c0.2,0.1,0.3,0.3,0.5,0.4c0.3-0.1,0.5-0.3,0.7-0.4c0.2-0.2,0.5-0.3,0.8-0.6
		c-0.6,2,0.4,3.3,2,4.5c0.2-0.5,0.5-1.1,0.7-1.5c0.6,0.7,1.2,1.5,1.9,2.2c0.6,0.7,0.9,1.5,0.7,2.5c0.9-0.8,1.5-1.7,1.8-2.6
		c0.1-0.3-0.2-0.7-0.3-1c-0.7-1.6-1.4-3.2-2-4.8c0-0.1,0-0.1,0-0.2c0.8,1.8,1.8,3.6,3.3,5.3c1-2.6,2-5,3-7.4c0,0.3-0.1,0.6-0.1,0.9
		c-0.1,0.3-0.1,0.6-0.2,1c-1.1,3.6-2.4,7.2-4.9,10.2c-0.1,0.1-0.2,0.4-0.1,0.5c0.5,1.1,1.1,2.3,1.6,3.4c0.2,0.5,0.6,0.5,1,0.2
		c1.8-1.2,3.3-2.5,3.9-4.5c0.2-0.6,0.4-1.2,0.6-1.9c0-0.2,0-0.4-0.1-0.5c-1.2-0.9-1.2-2-0.9-3.2c0.2-0.9,0.4-1.7,0.5-2.5
		c0.5,0.4,1.2,1,2,1.6c0.7-2,1.3-3.9,1.9-5.8c0,0,0.1,0,0.1,0c-0.3,1.4-0.7,2.8-1,4.3c0,0.1,0,0.2-0.1,0.4c-0.3,0.9-0.3,1.6,0.8,2.1
		c0.7,0.4,1,1.1,1,2c0.8-0.3,1.1-0.8,1.3-1.4c0.5-1.8,1.1-3.6,1.6-5.3c0.1,0,0.1,0,0.2,0.1c-0.2,0.9-0.5,1.9-0.6,2.8
		c-0.2,0.9-0.2,1.9-0.3,3c0.6-0.3,0.9-0.6,1.3-0.8c-0.6-0.9-0.5-1.8,0-2.7c0.6-1,1.1-2.1,1.6-3c0.8,0.8,1.7,1.8,2.7,2.8
		c0.7-0.5,1.4-1,2-1.5c0,0,0.1,0,0.1,0.1c-0.5,0.5-1.1,1-1.6,1.5c-0.1,0.1-0.2,0.4-0.1,0.6c0.5,1.4,0.1,2.3-1.3,3.1
		c-0.2,0.1-0.4,0.4-0.4,0.6C93,24.6,93,25.1,93,25.5c0,0.4-0.1,0.5-0.4,0.4c0.1-1.3,0.3-2.6,0.4-3.9c-0.1,0-0.2,0-0.3,0
		c-0.1,0.7-0.1,1.3-0.2,2.1c-0.6-0.2-1.1-0.3-1.6-0.5c-0.2-0.1-0.5-0.1-0.7,0c-1.7,1-3.3,1.9-5.1,3c0.4,0.4,0.8,0.9,1.3,1.4
		C86.3,28,86.2,28,86,28.1C85.7,27.7,85.4,27.4,85.2,27c-0.1-0.1-0.3-0.3-0.4-0.5c-1.5,0.6-1.6,0.7-1.6,2.2
		C83.9,28.2,84.5,27.6,85.2,27z"/>
	<path fill="#E4BD22" d="M118.1,32.8c0.3,0,0.6-0.1,1-0.1c-0.7,0.5-1.3,1-1.9,1.5c0,0.1,0,0.1,0.1,0.2c1,0,2.1,0,3.2,0
		c-0.6,0.5-1.2,1-1.8,1.5c0.1,0,0.1,0.1,0.2,0.1c0.6-0.2,1.1-0.4,1.7-0.4c1.1,0,2.2,0.2,3.2,0.3c1.1,0.2,2.3,0.5,3.4,0.7
		c0-0.1,0,0,0,0c-1.4,0.6-2.6,1.4-3.8,2.3c-1.2,0.9-2.6,1.1-4.1,0.7c-0.7-0.2-1.2-0.5-1.5-1.2c0.7-0.2,1.5-0.5,2.2-0.7
		c0.7-0.2,1.4-0.4,2.1-0.6c-2.4,0.3-4.6,1-6.8,2c-0.1-0.1-0.1-0.2-0.2-0.3c0.1-0.1,0.2-0.1,0.3-0.1c0.4-0.1,0.9-0.3,1.3-0.4
		c0.7-0.2,1.3-0.4,1.3-1.3c-1.2,0.5-2.4,0.9-3.6-0.3c-0.5,0.3-1,0.6-1.5,0.9c0-0.1-0.1-0.1-0.1-0.2c0.4-0.2,0.7-0.4,1.2-0.7
		c-1.1-0.1-2-0.1-2.7-0.9c0.5-0.3,1-0.6,1.5-0.9c0-0.1-0.1-0.1-0.1-0.2c-1,0.6-2.1,1.3-3.1,1.9c-0.1,0.1-0.4,0.1-0.5,0.1
		c0-0.1,0-0.1-0.1-0.2c0.6-0.3,1.2-0.6,1.7-0.9c0.1-0.1,0.3-0.3,0.3-0.4c-0.1-1.4,0.9-2,2.2-2.3c0.1,0,0.2,0,0.3-0.1c0,0,0,0,0,0
		c-1.3-1.6-1.1-3,0.6-4.3c0.3-0.2,0.6-0.4,0.9-0.5c0.8-0.4,1.7-0.8,2.5-1.3c0.8-0.5,1.5-1.1,2.3-1.7c-0.4,1.2-0.3,2.3,0,3.5
		C120.1,30.2,119.8,31.1,118.1,32.8z M117.4,29.3c-0.9,1.1-1.7,2.2-2.6,3.2c0.1,0,0.1,0.1,0.2,0.1C116,31.7,116.8,30.6,117.4,29.3z"
		/>
	<path fill="#165027" d="M61.4,8.8c0.3,0.3,0.6,0.7,1,0.9c0.8,0.6,1.7,1.1,2.6,1.7c0.7,0.5,1.6,0.9,2.2,1.5c1.4,1.4,0.9,3.4-1.1,4.2
		c-1.1-1.5-2.2-3-3.1-4.2c0.2,1.1,2.6,4.4,5,6.3c-0.2,0.1-0.4,0.2-0.6,0.3c-0.5-0.6-1-1.3-1.6-1.9c-0.2-0.2-0.4-0.3-0.7-0.3
		c-3.1,0-4.9-1.9-4.1-4.7c0.3-1.2,0.7-2.4,0.3-3.7C61.3,8.9,61.3,8.9,61.4,8.8z"/>
	<path fill="#721912" d="M53.2,12.6c0.3,0.5,0.5,0.8,0.8,1.1c0.7,0.7,1.3,1.5,2,2.2c1,0.9,1.9,1.7,1.8,3.1c-0.1,1.3-1.1,2.3-2.6,2.5
		c-0.9-1.7-1.4-3.4-1.7-5.2c0.1,2.7,1,5.2,2.6,7.6c-0.2,0.1-0.4,0.1-0.7,0.2c-0.3-0.6-0.5-1.2-0.7-1.8c-0.2-0.5-0.5-0.8-1.1-0.9
		c-1.8-0.3-2.9-1.6-2.8-3c0.1-0.8,0.4-1.6,0.9-2.3C52.3,15.1,53.1,14.1,53.2,12.6z"/>
	<path fill="#E4BD22" d="M103.8,29.1c-0.2-0.1-0.5-0.1-0.7-0.1c1.6-3,2-6,1.5-9.2c0,1.1,0.1,2.3,0,3.4c-0.1,1.1-0.5,2.2-0.8,3.3
		c-2.1,0-3.5-1.8-3-3.5c0.2-0.5,0.5-1.1,0.9-1.5c0.5-0.6,1.1-1.2,1.6-1.9c0.5-0.6,0.8-1.4,1.2-2.2c0.3,1.5,1.3,2.6,2.2,3.7
		c0.6,0.7,0.9,1.5,0.9,2.4c0,1.3-1,2.3-2.5,2.8c-0.5,0.1-0.8,0.4-0.9,0.8C104.2,27.8,104,28.4,103.8,29.1z"/>
	<path fill="#721912" d="M42.7,33.1c0.2-1.2,0.3-2.5,0.5-3.7c0,0-0.1,0-0.1,0c-0.1,0.6-0.2,1.3-0.2,1.9c0,0.5-0.3,0.5-0.8,0.4
		c-1-0.3-1.4-1.3-0.9-2.3c0.1-0.3,0.3-0.5,0.5-0.8c-0.2,0-0.4-0.1-0.7-0.1c-1.7-0.3-2.7-1.4-2.6-3c0-0.6,0.2-1.2,0.2-1.9
		c0-0.6-0.1-1.2-0.2-1.7c1.2,0.6,2.4,1.1,3.6,1.8c0.5,0.3,1.1,0.6,1.5,1c1.1,1,1,2.2-0.1,3.2c0.3,0.4,0.7,0.7,1,1.1
		c0.8,1.1,0.4,2.3-0.8,2.6c-0.6,0.2-0.4,0.7-0.5,1C42.9,32.8,42.8,33,42.7,33.1C42.7,33.1,42.7,33.1,42.7,33.1z M42.2,27.5
		c0.1,0,0.2,0,0.2-0.1c-0.2-0.6-0.6-1.2-1-1.7C41.6,26.3,41.9,26.9,42.2,27.5z"/>
	<path fill="#165027" d="M97.7,2c0,1.3-0.1,2.7-0.1,4c0,0.8,0,1.5-0.2,2.3c-0.7,2.3-3.5,3.7-7.1,3.5c-0.8,0-1.4,0.1-1.9,0.5
		c-0.9,0.6-1.9,1.2-2.9,1.7c0.1,0.1,0.2,0.2,0.2,0.2c-0.3-0.1-0.6-0.3-0.9-0.4c3.3-1.7,6.1-3.7,8.3-6.1c-1.4,1-2.8,2-4.1,3.1
		c-0.8,0.6-1.3,0.5-2,0c-1.3-1-1.5-2.6-0.2-3.8c0.8-0.8,2-1.4,3.1-1.9c1.3-0.6,2.9-0.9,4.3-1.4C95.5,3.1,96.7,2.5,97.7,2z"/>
	<path fill="#165027" d="M76.8,16.6c-0.3,0.1-0.6,0.1-0.9,0.2c-0.3-0.7-0.6-1.5-1-2.2c-0.2-0.3-0.6-0.6-1-0.7
		c-3.4-0.7-4.8-2.6-3.3-4.9c0.2-0.4,0.6-0.8,0.9-1.1c0.9-1.2,1.7-2.3,2.4-3.2c1.3,1.1,2.8,2.5,4.4,3.8c2.5,2.1,1.5,4.9-2.1,5.5
		c-0.1,0-0.2,0-0.6,0c-0.6-1.9-1.3-3.9-1.7-5.3C73.4,10.3,74.7,13.9,76.8,16.6z"/>
	<path fill="#E4BD22" d="M111.1,26.8c0.1,0.7,0.1,1.7,0.3,2.5c0.4,1.9-0.4,3.3-2.2,3.8c-0.1,0-0.3,0.1-0.4,0.1
		c-1.3-0.2-1.9,0.6-2.5,1.4c-0.1,0.1-0.2,0.3-0.4,0.4c-0.2-0.1-0.3-0.1-0.5-0.2c1.5-1.2,2.8-2.6,3.7-4.2c-0.7,0.8-1.4,1.6-2.1,2.4
		c-1.3-0.5-1.8-1.6-1.2-2.7c0.3-0.5,0.7-1,1.2-1.3C108.4,28.3,109.9,27.5,111.1,26.8z"/>
	<path fill="#E4BD22" d="M119.9,41.9c2.2-0.1,4.4-0.2,6.5-0.3c0-0.1,0-0.2,0-0.2c-3.6,0.2-7.3,0.4-11.1,0.6c0.3-0.2,0.5-0.4,0.7-0.4
		c0.4-0.1,0.9,0,1.4,0c1.4-0.1,2.6-0.1,3.7-1.1c1.5-1.3,3.8-1.4,6-1c1,0.2,2,0.5,3,0.9c1.8,0.7,3.6,1.5,5.4,2.2
		c-0.4,0.1-0.9,0.1-1.5,0.2c-1.6,0.3-3.2,0.7-4.7,1.1c-2.2,0.7-4.5,1-6.8,0.4C120.9,43.8,120.1,43.1,119.9,41.9z"/>
	<path fill="#721912" d="M36.9,32.6c-0.6-1.6-1.2-3-1.7-4.3c-0.1,0-0.2,0-0.2,0.1c0.3,0.8,0.7,1.5,1,2.3c-1,0.7-3-0.1-3.5-1.2
		c-0.1-0.3-0.2-0.7-0.2-1c0-1.2,0.1-2.4,0.2-3.4c0.8,0.4,1.9,0.9,2.8,1.4c0.6,0.4,1.3,0.7,1.8,1.2c0.8,0.8,0.7,1.9,0,2.5
		c-0.4,0.4-0.4,0.7-0.2,1.1c0.1,0.3,0.3,0.6,0.4,0.9C37.1,32.3,37,32.4,36.9,32.6z"/>
	<path fill="#E4BD22" d="M114.4,50.8c-1.8-0.5-3.3-0.9-4.9-1.3c0.9-1.3,3.1-1.9,5.3-1.4c1,0.2,1.9,0.5,2.8,1
		c1.7,0.9,3.3,1.8,4.8,2.6c-2.1,0.3-4.5,0.8-7,1.1c-1.6,0.2-3.2,0.1-4.5-0.7c-0.6-0.3-1.2-0.8-1.3-1.3c-0.2-0.7-0.8-0.9-1.6-1.1
		c-0.8-0.2-1.5-0.4-2.3-0.6c0-0.1,0-0.2,0-0.2c0.3,0,0.6-0.1,0.9,0c2.4,0.6,4.8,1.3,7.1,1.9C113.8,50.8,114,50.7,114.4,50.8z"/>
	<path fill="#165027" d="M109.9,8.2c0,1.2,0.1,2.6,0,4c-0.1,1.7-1,2.9-3.5,3.2c-0.3,0-0.6,0.1-0.9,0c-2.4-0.6-3.2,0.3-4.3,1
		c-0.2,0.1-0.6,0.1-1,0c2-1.2,4-2.4,6-3.6c-0.1-0.1-0.2-0.1-0.3-0.2c-1.1,0.7-2.2,1.4-3.3,2.1c-1.4-0.8-1.8-1.6-1.7-2.4
		c0-1.3,1.1-2.1,2.7-2.6C105.7,9.2,108,8.7,109.9,8.2z"/>
	<path fill="#721912" d="M33.8,37.6c-0.4-0.2-0.9-0.5-1.4-0.7c0,0.1-0.1,0.1-0.1,0.2c1.1,0.5,2.1,1.1,3.3,1.7
		c-0.2,0-0.4,0.1-0.5,0.1c-0.1,0-0.3-0.2-0.4-0.2c-0.7-0.4-1.3-0.7-2.2-0.5c-1.6,0.4-3.1-0.8-3.5-2.4c-0.2-0.7-0.5-1.5-0.7-2.2
		c-0.1,0,0,0,0,0c1.2,0.3,2.4,0.6,3.5,1c0.7,0.2,1.5,0.5,2,0.9C34.6,36,34.6,36.9,33.8,37.6z"/>
	<path fill="#721912" d="M36.1,45c1.4,0.2,2.9,0.3,4.3,0.5c0.8,0.1,1.5,0.5,2,1.1c0.4,0.6,0.4,1.1,0,1.7c-0.6-0.2-1.1-0.4-1.7-0.6
		c0,0.1,0,0.1-0.1,0.2c1.2,0.4,2.4,0.9,3.8,1.4c-0.2,0.1-0.4,0.1-0.5,0.1c-0.2,0-0.4-0.2-0.6-0.3c-0.7-0.3-1.3-0.5-2.1-0.2
		c-1.4,0.5-3-0.2-3.7-1.5C36.9,46.7,36.5,45.8,36.1,45z"/>
	<path fill="#165027" d="M106,44c0.4-0.3,0.8-0.6,1.2-0.9c-0.1-0.1-0.1-0.1-0.2-0.2c-0.7,0.7-1.4,1.4-2.1,2
		c-0.1,0.1-0.3,0.2-0.4,0.2c0-0.1-0.1-0.1-0.1-0.2c0.2-0.1,0.4-0.3,0.5-0.4c0.5-0.4,0.9-0.7,0.7-1.5c-0.2-0.6,0.2-1.2,0.8-1.5
		c0.6-0.3,1.2-0.5,1.9-0.7c1.1-0.2,2.1-0.3,3.2-0.4c-0.5,0.9-1,1.9-1.6,2.8C108.9,44.5,107.1,44.8,106,44z"/>
	<path fill="#721912" d="M49.3,24.2c0.5,0.4,1.2,0.9,1.8,1.5c0.4,0.3,0.8,0.7,1.1,1.1c0.4,0.7,0.3,1.4-0.4,1.8
		c-0.7,0.4-0.7,1-0.6,1.5c0,0.1-0.1,0.3-0.1,0.5c-0.1,0-0.2,0-0.3,0c0-1,0-2.1,0-3.1c-0.1,0-0.1,0-0.2,0c0,0.5,0.1,1.1,0.1,1.6
		c-1,0.3-2.2-0.4-2.3-1.4c0-0.4,0.1-0.8,0.2-1.2C48.7,25.7,49,24.9,49.3,24.2z"/>
	<path fill="#721912" d="M61.3,24.9c0.3-1.1,0.7-2.3,1-3.4c-0.1,0-0.1,0-0.2,0c-0.2,0.7-0.4,1.3-0.6,2c-1.1,0.1-2-1-1.7-1.9
		c0.1-0.3,0.3-0.7,0.5-0.9c0.6-0.7,1.2-1.4,1.7-2.1c0.4,0.6,0.8,1.2,1.3,1.9c0.9,1.3,0.5,2.4-1.1,3c-0.6,0.2-0.4,0.8-0.7,1.1
		c-0.1,0.2-0.2,0.3-0.3,0.5C61.4,24.9,61.4,24.9,61.3,24.9z"/>
	<path fill="#E4BD22" d="M111.8,44.4c1.1-0.1,2.1-0.2,3.2-0.3c0,0,0-0.1,0-0.1c-2,0.1-3.9,0.2-5.9,0.3c0-0.1,0-0.1,0-0.2
		c0.6,0,1.2,0,1.8-0.1c0.4-0.1,0.9-0.1,1.2-0.3c1.6-1.1,3.3-1.4,5.3-0.6c1.4,0.5,2.6,1.1,3.9,1.6c-1.6,0.4-3.4,0.9-5.1,1.2
		C114.1,46.4,112.3,45.7,111.8,44.4z"/>
	<path fill="#721912" d="M47.2,30.8c-0.1-0.3-0.3-0.6-0.4-0.8c0,0-0.1,0-0.1,0.1c0.3,0.6,0.6,1.3,0.8,1.9c0,0-0.1,0.1-0.1,0.1
		c-0.1-0.1-0.2-0.3-0.3-0.4c-0.2-0.4-0.4-0.8-1-0.9c-1-0.3-1.3-1.3-0.7-2.3c0.3-0.6,0.7-1.1,1-1.7c0.6,0.6,1.3,1.3,1.8,2
		C48.9,29.6,48.4,30.5,47.2,30.8z"/>
	<path fill="#165027" d="M87,27.3c-0.7,0.6-1.3,1.2-2.1,1.8c0-1.5,0.1-1.7,1.7-2.3C86.8,27,86.9,27.1,87,27.3
		C87,27.3,87,27.3,87,27.3z"/>
	<path fill="none" d="M118,28.7c-0.6,1.2-1.4,2.4-2.4,3.4c-0.1,0-0.1-0.1-0.2-0.1C116.2,30.8,117.1,29.8,118,28.7z"/>
	<path fill="none" d="M42.2,27.5c-0.3-0.6-0.5-1.2-0.8-1.7c0.5,0.5,0.8,1.1,1,1.7C42.3,27.5,42.2,27.5,42.2,27.5z"/>
	<text transform="matrix(1.0143 0 0 1 -2.813339e-005 68.915)" fill="#F6891F" font-family="'BrushScriptMT'" font-size="19.993">Beauty of</text>
	<text transform="matrix(1.1523 0 0 1 84.9824 79.3906)" fill="#F6891F" font-family="'Algerian'" font-size="15.9488">nature</text>
</g>
</svg>
